<svg xmlns="http://www.w3.org/2000/svg" width="1260" height="1280" viewBox="0 0 1260 1280">
<rect width="100%" height="100%" fill="#ffffff"/>
<text x="90" y="30" font-family="Arial" font-size="20" font-weight="700">Civitai daily publication trends by architecture</text>
<text x="90" y="50" font-family="Arial" font-size="12" fill="#4b5563">Counts use modelVersion.publishedAt converted to the selected local date; architecture uses grouped baseModel.</text>
<text x="90" y="68" font-family="Arial" font-size="12" fill="#b45309">Partial coverage: 2026-05-18, 2026-05-19</text>
<text x="90" y="72.0" font-family="Arial" font-size="15" font-weight="700">Checkpoint - Version releases</text>
<line x1="90" y1="323.0" x2="910" y2="323.0" stroke="#111827"/>
<line x1="90" y1="86.0" x2="90" y2="323.0" stroke="#111827"/>
<line x1="90" y1="323.0" x2="910" y2="323.0" stroke="#e5e7eb"/>
<text x="78" y="327.0" text-anchor="end" font-family="Arial" font-size="12">0</text>
<line x1="90" y1="255.3" x2="910" y2="255.3" stroke="#e5e7eb"/>
<text x="78" y="259.3" text-anchor="end" font-family="Arial" font-size="12">4</text>
<line x1="90" y1="204.5" x2="910" y2="204.5" stroke="#e5e7eb"/>
<text x="78" y="208.5" text-anchor="end" font-family="Arial" font-size="12">7</text>
<line x1="90" y1="153.7" x2="910" y2="153.7" stroke="#e5e7eb"/>
<text x="78" y="157.7" text-anchor="end" font-family="Arial" font-size="12">10</text>
<line x1="90" y1="86.0" x2="910" y2="86.0" stroke="#e5e7eb"/>
<text x="78" y="90.0" text-anchor="end" font-family="Arial" font-size="12">14</text>
<polyline fill="none" stroke="#2563eb" stroke-width="2.4" points="90.0,272.2 363.3,102.9 636.7,86.0 910.0,153.7"/>
<circle cx="90.0" cy="272.2" r="3" fill="#2563eb"/>
<circle cx="363.3" cy="102.9" r="3" fill="#2563eb"/>
<circle cx="636.7" cy="86.0" r="3" fill="#2563eb"/>
<circle cx="910.0" cy="153.7" r="3" fill="#2563eb"/>
<polyline fill="none" stroke="#dc2626" stroke-width="2.4" points="90.0,136.8 363.3,238.4 636.7,238.4 910.0,204.5"/>
<circle cx="90.0" cy="136.8" r="3" fill="#dc2626"/>
<circle cx="363.3" cy="238.4" r="3" fill="#dc2626"/>
<circle cx="636.7" cy="238.4" r="3" fill="#dc2626"/>
<circle cx="910.0" cy="204.5" r="3" fill="#dc2626"/>
<polyline fill="none" stroke="#16a34a" stroke-width="2.4" points="90.0,255.3 363.3,221.4 636.7,255.3 910.0,255.3"/>
<circle cx="90.0" cy="255.3" r="3" fill="#16a34a"/>
<circle cx="363.3" cy="221.4" r="3" fill="#16a34a"/>
<circle cx="636.7" cy="255.3" r="3" fill="#16a34a"/>
<circle cx="910.0" cy="255.3" r="3" fill="#16a34a"/>
<polyline fill="none" stroke="#9333ea" stroke-width="2.4" points="90.0,306.1 363.3,323.0 636.7,289.1 910.0,323.0"/>
<circle cx="90.0" cy="306.1" r="3" fill="#9333ea"/>
<circle cx="363.3" cy="323.0" r="3" fill="#9333ea"/>
<circle cx="636.7" cy="289.1" r="3" fill="#9333ea"/>
<circle cx="910.0" cy="323.0" r="3" fill="#9333ea"/>
<polyline fill="none" stroke="#ea580c" stroke-width="2.4" points="90.0,323.0 363.3,306.1 636.7,323.0 910.0,289.1"/>
<circle cx="90.0" cy="323.0" r="3" fill="#ea580c"/>
<circle cx="363.3" cy="306.1" r="3" fill="#ea580c"/>
<circle cx="636.7" cy="323.0" r="3" fill="#ea580c"/>
<circle cx="910.0" cy="289.1" r="3" fill="#ea580c"/>
<polyline fill="none" stroke="#0891b2" stroke-width="2.4" points="90.0,323.0 363.3,272.2 636.7,323.0 910.0,323.0"/>
<circle cx="90.0" cy="323.0" r="3" fill="#0891b2"/>
<circle cx="363.3" cy="272.2" r="3" fill="#0891b2"/>
<circle cx="636.7" cy="323.0" r="3" fill="#0891b2"/>
<circle cx="910.0" cy="323.0" r="3" fill="#0891b2"/>
<polyline fill="none" stroke="#4f46e5" stroke-width="2.4" points="90.0,323.0 363.3,306.1 636.7,323.0 910.0,289.1"/>
<circle cx="90.0" cy="323.0" r="3" fill="#4f46e5"/>
<circle cx="363.3" cy="306.1" r="3" fill="#4f46e5"/>
<circle cx="636.7" cy="323.0" r="3" fill="#4f46e5"/>
<circle cx="910.0" cy="289.1" r="3" fill="#4f46e5"/>
<polyline fill="none" stroke="#be123c" stroke-width="2.4" points="90.0,323.0 363.3,306.1 636.7,306.1 910.0,323.0"/>
<circle cx="90.0" cy="323.0" r="3" fill="#be123c"/>
<circle cx="363.3" cy="306.1" r="3" fill="#be123c"/>
<circle cx="636.7" cy="306.1" r="3" fill="#be123c"/>
<circle cx="910.0" cy="323.0" r="3" fill="#be123c"/>
<polyline fill="none" stroke="#0f766e" stroke-width="2.4" points="90.0,306.1 363.3,323.0 636.7,323.0 910.0,306.1"/>
<circle cx="90.0" cy="306.1" r="3" fill="#0f766e"/>
<circle cx="363.3" cy="323.0" r="3" fill="#0f766e"/>
<circle cx="636.7" cy="323.0" r="3" fill="#0f766e"/>
<circle cx="910.0" cy="306.1" r="3" fill="#0f766e"/>
<polyline fill="none" stroke="#a16207" stroke-width="2.4" points="90.0,323.0 363.3,323.0 636.7,289.1 910.0,323.0"/>
<circle cx="90.0" cy="323.0" r="3" fill="#a16207"/>
<circle cx="363.3" cy="323.0" r="3" fill="#a16207"/>
<circle cx="636.7" cy="289.1" r="3" fill="#a16207"/>
<circle cx="910.0" cy="323.0" r="3" fill="#a16207"/>
<polyline fill="none" stroke="#7c2d12" stroke-width="2.4" points="90.0,323.0 363.3,323.0 636.7,306.1 910.0,323.0"/>
<circle cx="90.0" cy="323.0" r="3" fill="#7c2d12"/>
<circle cx="363.3" cy="323.0" r="3" fill="#7c2d12"/>
<circle cx="636.7" cy="306.1" r="3" fill="#7c2d12"/>
<circle cx="910.0" cy="323.0" r="3" fill="#7c2d12"/>
<line x1="940" y1="104.0" x2="962" y2="104.0" stroke="#2563eb" stroke-width="3"/>
<text x="972" y="108.0" font-family="Arial" font-size="11">Illustrious (40)</text>
<line x1="940" y1="119.0" x2="962" y2="119.0" stroke="#dc2626" stroke-width="3"/>
<text x="972" y="123.0" font-family="Arial" font-size="11">Anima (28)</text>
<line x1="940" y1="134.0" x2="962" y2="134.0" stroke="#16a34a" stroke-width="3"/>
<text x="972" y="138.0" font-family="Arial" font-size="11">SDXL (18)</text>
<line x1="940" y1="149.0" x2="962" y2="149.0" stroke="#9333ea" stroke-width="3"/>
<text x="972" y="153.0" font-family="Arial" font-size="11">Ernie (3)</text>
<line x1="940" y1="164.0" x2="962" y2="164.0" stroke="#ea580c" stroke-width="3"/>
<text x="972" y="168.0" font-family="Arial" font-size="11">Z-Image (3)</text>
<line x1="940" y1="179.0" x2="962" y2="179.0" stroke="#0891b2" stroke-width="3"/>
<text x="972" y="183.0" font-family="Arial" font-size="11">Pony (3)</text>
<line x1="940" y1="194.0" x2="962" y2="194.0" stroke="#4f46e5" stroke-width="3"/>
<text x="972" y="198.0" font-family="Arial" font-size="11">SD 1.5 (3)</text>
<line x1="940" y1="209.0" x2="962" y2="209.0" stroke="#be123c" stroke-width="3"/>
<text x="972" y="213.0" font-family="Arial" font-size="11">Flux (2)</text>
<line x1="940" y1="224.0" x2="962" y2="224.0" stroke="#0f766e" stroke-width="3"/>
<text x="972" y="228.0" font-family="Arial" font-size="11">FLUX2 Klein 9B (2)</text>
<line x1="940" y1="239.0" x2="962" y2="239.0" stroke="#a16207" stroke-width="3"/>
<text x="972" y="243.0" font-family="Arial" font-size="11">Wanvideo2.2 (2)</text>
<line x1="940" y1="254.0" x2="962" y2="254.0" stroke="#7c2d12" stroke-width="3"/>
<text x="972" y="258.0" font-family="Arial" font-size="11">Hi-Dream O1 (1)</text>
<text x="90" y="365.0" font-family="Arial" font-size="15" font-weight="700">Checkpoint - Model publications</text>
<line x1="90" y1="616.0" x2="910" y2="616.0" stroke="#111827"/>
<line x1="90" y1="379.0" x2="90" y2="616.0" stroke="#111827"/>
<line x1="90" y1="616.0" x2="910" y2="616.0" stroke="#e5e7eb"/>
<text x="78" y="620.0" text-anchor="end" font-family="Arial" font-size="12">0</text>
<line x1="90" y1="537.0" x2="910" y2="537.0" stroke="#e5e7eb"/>
<text x="78" y="541.0" text-anchor="end" font-family="Arial" font-size="12">2</text>
<line x1="90" y1="497.5" x2="910" y2="497.5" stroke="#e5e7eb"/>
<text x="78" y="501.5" text-anchor="end" font-family="Arial" font-size="12">3</text>
<line x1="90" y1="458.0" x2="910" y2="458.0" stroke="#e5e7eb"/>
<text x="78" y="462.0" text-anchor="end" font-family="Arial" font-size="12">4</text>
<line x1="90" y1="379.0" x2="910" y2="379.0" stroke="#e5e7eb"/>
<text x="78" y="383.0" text-anchor="end" font-family="Arial" font-size="12">6</text>
<polyline fill="none" stroke="#2563eb" stroke-width="2.4" points="90.0,418.5 363.3,537.0 636.7,497.5 910.0,497.5"/>
<circle cx="90.0" cy="418.5" r="3" fill="#2563eb"/>
<circle cx="363.3" cy="537.0" r="3" fill="#2563eb"/>
<circle cx="636.7" cy="497.5" r="3" fill="#2563eb"/>
<circle cx="910.0" cy="497.5" r="3" fill="#2563eb"/>
<polyline fill="none" stroke="#dc2626" stroke-width="2.4" points="90.0,497.5 363.3,458.0 636.7,458.0 910.0,537.0"/>
<circle cx="90.0" cy="497.5" r="3" fill="#dc2626"/>
<circle cx="363.3" cy="458.0" r="3" fill="#dc2626"/>
<circle cx="636.7" cy="458.0" r="3" fill="#dc2626"/>
<circle cx="910.0" cy="537.0" r="3" fill="#dc2626"/>
<polyline fill="none" stroke="#16a34a" stroke-width="2.4" points="90.0,576.5 363.3,379.0 636.7,497.5 910.0,537.0"/>
<circle cx="90.0" cy="576.5" r="3" fill="#16a34a"/>
<circle cx="363.3" cy="379.0" r="3" fill="#16a34a"/>
<circle cx="636.7" cy="497.5" r="3" fill="#16a34a"/>
<circle cx="910.0" cy="537.0" r="3" fill="#16a34a"/>
<polyline fill="none" stroke="#9333ea" stroke-width="2.4" points="90.0,616.0 363.3,616.0 636.7,537.0 910.0,616.0"/>
<circle cx="90.0" cy="616.0" r="3" fill="#9333ea"/>
<circle cx="363.3" cy="616.0" r="3" fill="#9333ea"/>
<circle cx="636.7" cy="537.0" r="3" fill="#9333ea"/>
<circle cx="910.0" cy="616.0" r="3" fill="#9333ea"/>
<polyline fill="none" stroke="#ea580c" stroke-width="2.4" points="90.0,616.0 363.3,576.5 636.7,616.0 910.0,616.0"/>
<circle cx="90.0" cy="616.0" r="3" fill="#ea580c"/>
<circle cx="363.3" cy="576.5" r="3" fill="#ea580c"/>
<circle cx="636.7" cy="616.0" r="3" fill="#ea580c"/>
<circle cx="910.0" cy="616.0" r="3" fill="#ea580c"/>
<polyline fill="none" stroke="#0891b2" stroke-width="2.4" points="90.0,616.0 363.3,616.0 636.7,576.5 910.0,616.0"/>
<circle cx="90.0" cy="616.0" r="3" fill="#0891b2"/>
<circle cx="363.3" cy="616.0" r="3" fill="#0891b2"/>
<circle cx="636.7" cy="576.5" r="3" fill="#0891b2"/>
<circle cx="910.0" cy="616.0" r="3" fill="#0891b2"/>
<polyline fill="none" stroke="#4f46e5" stroke-width="2.4" points="90.0,616.0 363.3,616.0 636.7,616.0 910.0,576.5"/>
<circle cx="90.0" cy="616.0" r="3" fill="#4f46e5"/>
<circle cx="363.3" cy="616.0" r="3" fill="#4f46e5"/>
<circle cx="636.7" cy="616.0" r="3" fill="#4f46e5"/>
<circle cx="910.0" cy="576.5" r="3" fill="#4f46e5"/>
<line x1="940" y1="397.0" x2="962" y2="397.0" stroke="#2563eb" stroke-width="3"/>
<text x="972" y="401.0" font-family="Arial" font-size="11">Anima (13)</text>
<line x1="940" y1="412.0" x2="962" y2="412.0" stroke="#dc2626" stroke-width="3"/>
<text x="972" y="416.0" font-family="Arial" font-size="11">SDXL (13)</text>
<line x1="940" y1="427.0" x2="962" y2="427.0" stroke="#16a34a" stroke-width="3"/>
<text x="972" y="431.0" font-family="Arial" font-size="11">Illustrious (12)</text>
<line x1="940" y1="442.0" x2="962" y2="442.0" stroke="#9333ea" stroke-width="3"/>
<text x="972" y="446.0" font-family="Arial" font-size="11">Ernie (2)</text>
<line x1="940" y1="457.0" x2="962" y2="457.0" stroke="#ea580c" stroke-width="3"/>
<text x="972" y="461.0" font-family="Arial" font-size="11">Flux (1)</text>
<line x1="940" y1="472.0" x2="962" y2="472.0" stroke="#0891b2" stroke-width="3"/>
<text x="972" y="476.0" font-family="Arial" font-size="11">Hi-Dream O1 (1)</text>
<line x1="940" y1="487.0" x2="962" y2="487.0" stroke="#4f46e5" stroke-width="3"/>
<text x="972" y="491.0" font-family="Arial" font-size="11">SD 1.5 (1)</text>
<text x="90" y="658.0" font-family="Arial" font-size="15" font-weight="700">LORA - Version releases</text>
<line x1="90" y1="909.0" x2="910" y2="909.0" stroke="#111827"/>
<line x1="90" y1="672.0" x2="90" y2="909.0" stroke="#111827"/>
<line x1="90" y1="909.0" x2="910" y2="909.0" stroke="#e5e7eb"/>
<text x="78" y="913.0" text-anchor="end" font-family="Arial" font-size="12">0</text>
<line x1="90" y1="849.5" x2="910" y2="849.5" stroke="#e5e7eb"/>
<text x="78" y="853.5" text-anchor="end" font-family="Arial" font-size="12">61</text>
<line x1="90" y1="790.0" x2="910" y2="790.0" stroke="#e5e7eb"/>
<text x="78" y="794.0" text-anchor="end" font-family="Arial" font-size="12">122</text>
<line x1="90" y1="731.5" x2="910" y2="731.5" stroke="#e5e7eb"/>
<text x="78" y="735.5" text-anchor="end" font-family="Arial" font-size="12">182</text>
<line x1="90" y1="672.0" x2="910" y2="672.0" stroke="#e5e7eb"/>
<text x="78" y="676.0" text-anchor="end" font-family="Arial" font-size="12">243</text>
<polyline fill="none" stroke="#2563eb" stroke-width="2.4" points="90.0,720.8 363.3,672.0 636.7,735.4 910.0,724.7"/>
<circle cx="90.0" cy="720.8" r="3" fill="#2563eb"/>
<circle cx="363.3" cy="672.0" r="3" fill="#2563eb"/>
<circle cx="636.7" cy="735.4" r="3" fill="#2563eb"/>
<circle cx="910.0" cy="724.7" r="3" fill="#2563eb"/>
<polyline fill="none" stroke="#dc2626" stroke-width="2.4" points="90.0,813.4 363.3,813.4 636.7,799.8 910.0,803.7"/>
<circle cx="90.0" cy="813.4" r="3" fill="#dc2626"/>
<circle cx="363.3" cy="813.4" r="3" fill="#dc2626"/>
<circle cx="636.7" cy="799.8" r="3" fill="#dc2626"/>
<circle cx="910.0" cy="803.7" r="3" fill="#dc2626"/>
<polyline fill="none" stroke="#16a34a" stroke-width="2.4" points="90.0,882.7 363.3,889.5 636.7,889.5 910.0,887.5"/>
<circle cx="90.0" cy="882.7" r="3" fill="#16a34a"/>
<circle cx="363.3" cy="889.5" r="3" fill="#16a34a"/>
<circle cx="636.7" cy="889.5" r="3" fill="#16a34a"/>
<circle cx="910.0" cy="887.5" r="3" fill="#16a34a"/>
<polyline fill="none" stroke="#9333ea" stroke-width="2.4" points="90.0,893.4 363.3,896.3 636.7,896.3 910.0,897.3"/>
<circle cx="90.0" cy="893.4" r="3" fill="#9333ea"/>
<circle cx="363.3" cy="896.3" r="3" fill="#9333ea"/>
<circle cx="636.7" cy="896.3" r="3" fill="#9333ea"/>
<circle cx="910.0" cy="897.3" r="3" fill="#9333ea"/>
<polyline fill="none" stroke="#ea580c" stroke-width="2.4" points="90.0,894.4 363.3,895.3 636.7,896.3 910.0,898.3"/>
<circle cx="90.0" cy="894.4" r="3" fill="#ea580c"/>
<circle cx="363.3" cy="895.3" r="3" fill="#ea580c"/>
<circle cx="636.7" cy="896.3" r="3" fill="#ea580c"/>
<circle cx="910.0" cy="898.3" r="3" fill="#ea580c"/>
<polyline fill="none" stroke="#0891b2" stroke-width="2.4" points="90.0,903.1 363.3,895.3 636.7,898.3 910.0,899.2"/>
<circle cx="90.0" cy="903.1" r="3" fill="#0891b2"/>
<circle cx="363.3" cy="895.3" r="3" fill="#0891b2"/>
<circle cx="636.7" cy="898.3" r="3" fill="#0891b2"/>
<circle cx="910.0" cy="899.2" r="3" fill="#0891b2"/>
<polyline fill="none" stroke="#4f46e5" stroke-width="2.4" points="90.0,895.3 363.3,906.1 636.7,897.3 910.0,898.3"/>
<circle cx="90.0" cy="895.3" r="3" fill="#4f46e5"/>
<circle cx="363.3" cy="906.1" r="3" fill="#4f46e5"/>
<circle cx="636.7" cy="897.3" r="3" fill="#4f46e5"/>
<circle cx="910.0" cy="898.3" r="3" fill="#4f46e5"/>
<polyline fill="none" stroke="#be123c" stroke-width="2.4" points="90.0,899.2 363.3,901.2 636.7,898.3 910.0,903.1"/>
<circle cx="90.0" cy="899.2" r="3" fill="#be123c"/>
<circle cx="363.3" cy="901.2" r="3" fill="#be123c"/>
<circle cx="636.7" cy="898.3" r="3" fill="#be123c"/>
<circle cx="910.0" cy="903.1" r="3" fill="#be123c"/>
<polyline fill="none" stroke="#0f766e" stroke-width="2.4" points="90.0,900.2 363.3,903.1 636.7,902.2 910.0,903.1"/>
<circle cx="90.0" cy="900.2" r="3" fill="#0f766e"/>
<circle cx="363.3" cy="903.1" r="3" fill="#0f766e"/>
<circle cx="636.7" cy="902.2" r="3" fill="#0f766e"/>
<circle cx="910.0" cy="903.1" r="3" fill="#0f766e"/>
<polyline fill="none" stroke="#a16207" stroke-width="2.4" points="90.0,907.0 363.3,902.2 636.7,903.1 910.0,906.1"/>
<circle cx="90.0" cy="907.0" r="3" fill="#a16207"/>
<circle cx="363.3" cy="902.2" r="3" fill="#a16207"/>
<circle cx="636.7" cy="903.1" r="3" fill="#a16207"/>
<circle cx="910.0" cy="906.1" r="3" fill="#a16207"/>
<polyline fill="none" stroke="#7c2d12" stroke-width="2.4" points="90.0,907.0 363.3,907.0 636.7,899.2 910.0,908.0"/>
<circle cx="90.0" cy="907.0" r="3" fill="#7c2d12"/>
<circle cx="363.3" cy="907.0" r="3" fill="#7c2d12"/>
<circle cx="636.7" cy="899.2" r="3" fill="#7c2d12"/>
<circle cx="910.0" cy="908.0" r="3" fill="#7c2d12"/>
<polyline fill="none" stroke="#0369a1" stroke-width="2.4" points="90.0,904.1 363.3,908.0 636.7,908.0 910.0,908.0"/>
<circle cx="90.0" cy="904.1" r="3" fill="#0369a1"/>
<circle cx="363.3" cy="908.0" r="3" fill="#0369a1"/>
<circle cx="636.7" cy="908.0" r="3" fill="#0369a1"/>
<circle cx="910.0" cy="908.0" r="3" fill="#0369a1"/>
<polyline fill="none" stroke="#65a30d" stroke-width="2.4" points="90.0,909.0 363.3,907.0 636.7,909.0 910.0,907.0"/>
<circle cx="90.0" cy="909.0" r="3" fill="#65a30d"/>
<circle cx="363.3" cy="907.0" r="3" fill="#65a30d"/>
<circle cx="636.7" cy="909.0" r="3" fill="#65a30d"/>
<circle cx="910.0" cy="907.0" r="3" fill="#65a30d"/>
<polyline fill="none" stroke="#c026d3" stroke-width="2.4" points="90.0,909.0 363.3,906.1 636.7,909.0 910.0,909.0"/>
<circle cx="90.0" cy="909.0" r="3" fill="#c026d3"/>
<circle cx="363.3" cy="906.1" r="3" fill="#c026d3"/>
<circle cx="636.7" cy="909.0" r="3" fill="#c026d3"/>
<circle cx="910.0" cy="909.0" r="3" fill="#c026d3"/>
<polyline fill="none" stroke="#475569" stroke-width="2.4" points="90.0,907.0 363.3,909.0 636.7,909.0 910.0,909.0"/>
<circle cx="90.0" cy="907.0" r="3" fill="#475569"/>
<circle cx="363.3" cy="909.0" r="3" fill="#475569"/>
<circle cx="636.7" cy="909.0" r="3" fill="#475569"/>
<circle cx="910.0" cy="909.0" r="3" fill="#475569"/>
<line x1="940" y1="690.0" x2="962" y2="690.0" stroke="#2563eb" stroke-width="3"/>
<text x="972" y="694.0" font-family="Arial" font-size="11">Illustrious (803)</text>
<line x1="940" y1="705.0" x2="962" y2="705.0" stroke="#dc2626" stroke-width="3"/>
<text x="972" y="709.0" font-family="Arial" font-size="11">Anima (416)</text>
<line x1="940" y1="720.0" x2="962" y2="720.0" stroke="#16a34a" stroke-width="3"/>
<text x="972" y="724.0" font-family="Arial" font-size="11">Z-Image (89)</text>
<line x1="940" y1="735.0" x2="962" y2="735.0" stroke="#9333ea" stroke-width="3"/>
<text x="972" y="739.0" font-family="Arial" font-size="11">Pony (54)</text>
<line x1="940" y1="750.0" x2="962" y2="750.0" stroke="#ea580c" stroke-width="3"/>
<text x="972" y="754.0" font-family="Arial" font-size="11">SDXL (53)</text>
<line x1="940" y1="765.0" x2="962" y2="765.0" stroke="#0891b2" stroke-width="3"/>
<text x="972" y="769.0" font-family="Arial" font-size="11">NoobAI (41)</text>
<line x1="940" y1="780.0" x2="962" y2="780.0" stroke="#4f46e5" stroke-width="3"/>
<text x="972" y="784.0" font-family="Arial" font-size="11">FLUX2 Klein 9B (40)</text>
<line x1="940" y1="795.0" x2="962" y2="795.0" stroke="#be123c" stroke-width="3"/>
<text x="972" y="799.0" font-family="Arial" font-size="11">Flux (35)</text>
<line x1="940" y1="810.0" x2="962" y2="810.0" stroke="#0f766e" stroke-width="3"/>
<text x="972" y="814.0" font-family="Arial" font-size="11">SD 1.5 (28)</text>
<line x1="940" y1="825.0" x2="962" y2="825.0" stroke="#a16207" stroke-width="3"/>
<text x="972" y="829.0" font-family="Arial" font-size="11">Ernie (18)</text>
<line x1="940" y1="840.0" x2="962" y2="840.0" stroke="#7c2d12" stroke-width="3"/>
<text x="972" y="844.0" font-family="Arial" font-size="11">Legacy (15)</text>
<line x1="940" y1="855.0" x2="962" y2="855.0" stroke="#0369a1" stroke-width="3"/>
<text x="972" y="859.0" font-family="Arial" font-size="11">LTXV2.3 (8)</text>
<line x1="940" y1="870.0" x2="962" y2="870.0" stroke="#65a30d" stroke-width="3"/>
<text x="972" y="874.0" font-family="Arial" font-size="11">Wanvideo2.2 (4)</text>
<line x1="940" y1="885.0" x2="962" y2="885.0" stroke="#c026d3" stroke-width="3"/>
<text x="972" y="889.0" font-family="Arial" font-size="11">Hi-Dream O1 (3)</text>
<line x1="940" y1="900.0" x2="962" y2="900.0" stroke="#475569" stroke-width="3"/>
<text x="972" y="904.0" font-family="Arial" font-size="11">Qwen (2)</text>
<text x="90" y="951.0" font-family="Arial" font-size="15" font-weight="700">LORA - Model publications</text>
<line x1="90" y1="1202.0" x2="910" y2="1202.0" stroke="#111827"/>
<line x1="90" y1="965.0" x2="90" y2="1202.0" stroke="#111827"/>
<line x1="90" y1="1202.0" x2="910" y2="1202.0" stroke="#e5e7eb"/>
<text x="78" y="1206.0" text-anchor="end" font-family="Arial" font-size="12">0</text>
<line x1="90" y1="1142.4" x2="910" y2="1142.4" stroke="#e5e7eb"/>
<text x="78" y="1146.4" text-anchor="end" font-family="Arial" font-size="12">49</text>
<line x1="90" y1="1082.9" x2="910" y2="1082.9" stroke="#e5e7eb"/>
<text x="78" y="1086.9" text-anchor="end" font-family="Arial" font-size="12">98</text>
<line x1="90" y1="1024.6" x2="910" y2="1024.6" stroke="#e5e7eb"/>
<text x="78" y="1028.6" text-anchor="end" font-family="Arial" font-size="12">146</text>
<line x1="90" y1="965.0" x2="910" y2="965.0" stroke="#e5e7eb"/>
<text x="78" y="969.0" text-anchor="end" font-family="Arial" font-size="12">195</text>
<polyline fill="none" stroke="#2563eb" stroke-width="2.4" points="90.0,1002.7 363.3,965.0 636.7,1028.2 910.0,1022.1"/>
<circle cx="90.0" cy="1002.7" r="3" fill="#2563eb"/>
<circle cx="363.3" cy="965.0" r="3" fill="#2563eb"/>
<circle cx="636.7" cy="1028.2" r="3" fill="#2563eb"/>
<circle cx="910.0" cy="1022.1" r="3" fill="#2563eb"/>
<polyline fill="none" stroke="#dc2626" stroke-width="2.4" points="90.0,1147.3 363.3,1159.5 636.7,1138.8 910.0,1142.4"/>
<circle cx="90.0" cy="1147.3" r="3" fill="#dc2626"/>
<circle cx="363.3" cy="1159.5" r="3" fill="#dc2626"/>
<circle cx="636.7" cy="1138.8" r="3" fill="#dc2626"/>
<circle cx="910.0" cy="1142.4" r="3" fill="#dc2626"/>
<polyline fill="none" stroke="#16a34a" stroke-width="2.4" points="90.0,1186.2 363.3,1188.6 636.7,1188.6 910.0,1189.8"/>
<circle cx="90.0" cy="1186.2" r="3" fill="#16a34a"/>
<circle cx="363.3" cy="1188.6" r="3" fill="#16a34a"/>
<circle cx="636.7" cy="1188.6" r="3" fill="#16a34a"/>
<circle cx="910.0" cy="1189.8" r="3" fill="#16a34a"/>
<polyline fill="none" stroke="#9333ea" stroke-width="2.4" points="90.0,1185.0 363.3,1187.4 636.7,1193.5 910.0,1189.8"/>
<circle cx="90.0" cy="1185.0" r="3" fill="#9333ea"/>
<circle cx="363.3" cy="1187.4" r="3" fill="#9333ea"/>
<circle cx="636.7" cy="1193.5" r="3" fill="#9333ea"/>
<circle cx="910.0" cy="1189.8" r="3" fill="#9333ea"/>
<polyline fill="none" stroke="#ea580c" stroke-width="2.4" points="90.0,1188.6 363.3,1193.5 636.7,1191.1 910.0,1187.4"/>
<circle cx="90.0" cy="1188.6" r="3" fill="#ea580c"/>
<circle cx="363.3" cy="1193.5" r="3" fill="#ea580c"/>
<circle cx="636.7" cy="1191.1" r="3" fill="#ea580c"/>
<circle cx="910.0" cy="1187.4" r="3" fill="#ea580c"/>
<polyline fill="none" stroke="#0891b2" stroke-width="2.4" points="90.0,1195.9 363.3,1191.1 636.7,1194.7 910.0,1189.8"/>
<circle cx="90.0" cy="1195.9" r="3" fill="#0891b2"/>
<circle cx="363.3" cy="1191.1" r="3" fill="#0891b2"/>
<circle cx="636.7" cy="1194.7" r="3" fill="#0891b2"/>
<circle cx="910.0" cy="1189.8" r="3" fill="#0891b2"/>
<polyline fill="none" stroke="#4f46e5" stroke-width="2.4" points="90.0,1193.5 363.3,1193.5 636.7,1191.1 910.0,1198.4"/>
<circle cx="90.0" cy="1193.5" r="3" fill="#4f46e5"/>
<circle cx="363.3" cy="1193.5" r="3" fill="#4f46e5"/>
<circle cx="636.7" cy="1191.1" r="3" fill="#4f46e5"/>
<circle cx="910.0" cy="1198.4" r="3" fill="#4f46e5"/>
<polyline fill="none" stroke="#be123c" stroke-width="2.4" points="90.0,1189.8 363.3,1199.6 636.7,1197.1 910.0,1197.1"/>
<circle cx="90.0" cy="1189.8" r="3" fill="#be123c"/>
<circle cx="363.3" cy="1199.6" r="3" fill="#be123c"/>
<circle cx="636.7" cy="1197.1" r="3" fill="#be123c"/>
<circle cx="910.0" cy="1197.1" r="3" fill="#be123c"/>
<polyline fill="none" stroke="#0f766e" stroke-width="2.4" points="90.0,1193.5 363.3,1197.1 636.7,1195.9 910.0,1200.8"/>
<circle cx="90.0" cy="1193.5" r="3" fill="#0f766e"/>
<circle cx="363.3" cy="1197.1" r="3" fill="#0f766e"/>
<circle cx="636.7" cy="1195.9" r="3" fill="#0f766e"/>
<circle cx="910.0" cy="1200.8" r="3" fill="#0f766e"/>
<polyline fill="none" stroke="#a16207" stroke-width="2.4" points="90.0,1199.6 363.3,1200.8 636.7,1195.9 910.0,1202.0"/>
<circle cx="90.0" cy="1199.6" r="3" fill="#a16207"/>
<circle cx="363.3" cy="1200.8" r="3" fill="#a16207"/>
<circle cx="636.7" cy="1195.9" r="3" fill="#a16207"/>
<circle cx="910.0" cy="1202.0" r="3" fill="#a16207"/>
<polyline fill="none" stroke="#7c2d12" stroke-width="2.4" points="90.0,1202.0 363.3,1200.8 636.7,1199.6 910.0,1200.8"/>
<circle cx="90.0" cy="1202.0" r="3" fill="#7c2d12"/>
<circle cx="363.3" cy="1200.8" r="3" fill="#7c2d12"/>
<circle cx="636.7" cy="1199.6" r="3" fill="#7c2d12"/>
<circle cx="910.0" cy="1200.8" r="3" fill="#7c2d12"/>
<polyline fill="none" stroke="#0369a1" stroke-width="2.4" points="90.0,1200.8 363.3,1200.8 636.7,1202.0 910.0,1200.8"/>
<circle cx="90.0" cy="1200.8" r="3" fill="#0369a1"/>
<circle cx="363.3" cy="1200.8" r="3" fill="#0369a1"/>
<circle cx="636.7" cy="1202.0" r="3" fill="#0369a1"/>
<circle cx="910.0" cy="1200.8" r="3" fill="#0369a1"/>
<polyline fill="none" stroke="#65a30d" stroke-width="2.4" points="90.0,1199.6 363.3,1202.0 636.7,1202.0 910.0,1202.0"/>
<circle cx="90.0" cy="1199.6" r="3" fill="#65a30d"/>
<circle cx="363.3" cy="1202.0" r="3" fill="#65a30d"/>
<circle cx="636.7" cy="1202.0" r="3" fill="#65a30d"/>
<circle cx="910.0" cy="1202.0" r="3" fill="#65a30d"/>
<polyline fill="none" stroke="#c026d3" stroke-width="2.4" points="90.0,1202.0 363.3,1200.8 636.7,1202.0 910.0,1202.0"/>
<circle cx="90.0" cy="1202.0" r="3" fill="#c026d3"/>
<circle cx="363.3" cy="1200.8" r="3" fill="#c026d3"/>
<circle cx="636.7" cy="1202.0" r="3" fill="#c026d3"/>
<circle cx="910.0" cy="1202.0" r="3" fill="#c026d3"/>
<polyline fill="none" stroke="#475569" stroke-width="2.4" points="90.0,1202.0 363.3,1202.0 636.7,1202.0 910.0,1200.8"/>
<circle cx="90.0" cy="1202.0" r="3" fill="#475569"/>
<circle cx="363.3" cy="1202.0" r="3" fill="#475569"/>
<circle cx="636.7" cy="1202.0" r="3" fill="#475569"/>
<circle cx="910.0" cy="1200.8" r="3" fill="#475569"/>
<line x1="940" y1="983.0" x2="962" y2="983.0" stroke="#2563eb" stroke-width="3"/>
<text x="972" y="987.0" font-family="Arial" font-size="11">Illustrious (650)</text>
<line x1="940" y1="998.0" x2="962" y2="998.0" stroke="#dc2626" stroke-width="3"/>
<text x="972" y="1002.0" font-family="Arial" font-size="11">Anima (181)</text>
<line x1="940" y1="1013.0" x2="962" y2="1013.0" stroke="#16a34a" stroke-width="3"/>
<text x="972" y="1017.0" font-family="Arial" font-size="11">Pony (45)</text>
<line x1="940" y1="1028.0" x2="962" y2="1028.0" stroke="#9333ea" stroke-width="3"/>
<text x="972" y="1032.0" font-family="Arial" font-size="11">SDXL (43)</text>
<line x1="940" y1="1043.0" x2="962" y2="1043.0" stroke="#ea580c" stroke-width="3"/>
<text x="972" y="1047.0" font-family="Arial" font-size="11">Z-Image (39)</text>
<line x1="940" y1="1058.0" x2="962" y2="1058.0" stroke="#0891b2" stroke-width="3"/>
<text x="972" y="1062.0" font-family="Arial" font-size="11">NoobAI (30)</text>
<line x1="940" y1="1073.0" x2="962" y2="1073.0" stroke="#4f46e5" stroke-width="3"/>
<text x="972" y="1077.0" font-family="Arial" font-size="11">Flux (26)</text>
<line x1="940" y1="1088.0" x2="962" y2="1088.0" stroke="#be123c" stroke-width="3"/>
<text x="972" y="1092.0" font-family="Arial" font-size="11">FLUX2 Klein 9B (20)</text>
<line x1="940" y1="1103.0" x2="962" y2="1103.0" stroke="#0f766e" stroke-width="3"/>
<text x="972" y="1107.0" font-family="Arial" font-size="11">SD 1.5 (17)</text>
<line x1="940" y1="1118.0" x2="962" y2="1118.0" stroke="#a16207" stroke-width="3"/>
<text x="972" y="1122.0" font-family="Arial" font-size="11">Legacy (8)</text>
<line x1="940" y1="1133.0" x2="962" y2="1133.0" stroke="#7c2d12" stroke-width="3"/>
<text x="972" y="1137.0" font-family="Arial" font-size="11">Ernie (4)</text>
<line x1="940" y1="1148.0" x2="962" y2="1148.0" stroke="#0369a1" stroke-width="3"/>
<text x="972" y="1152.0" font-family="Arial" font-size="11">LTXV2.3 (3)</text>
<line x1="940" y1="1163.0" x2="962" y2="1163.0" stroke="#65a30d" stroke-width="3"/>
<text x="972" y="1167.0" font-family="Arial" font-size="11">Qwen (2)</text>
<line x1="940" y1="1178.0" x2="962" y2="1178.0" stroke="#c026d3" stroke-width="3"/>
<text x="972" y="1182.0" font-family="Arial" font-size="11">Hi-Dream O1 (1)</text>
<line x1="940" y1="1193.0" x2="962" y2="1193.0" stroke="#475569" stroke-width="3"/>
<text x="972" y="1197.0" font-family="Arial" font-size="11">Wanvideo2.2 (1)</text>
<text x="90.0" y="1246" text-anchor="middle" font-family="Arial" font-size="12" fill="#b45309">2026-05-18 *</text>
<text x="363.3" y="1246" text-anchor="middle" font-family="Arial" font-size="12" fill="#b45309">2026-05-19 *</text>
<text x="636.7" y="1246" text-anchor="middle" font-family="Arial" font-size="12" fill="#111827">2026-05-20</text>
<text x="910.0" y="1246" text-anchor="middle" font-family="Arial" font-size="12" fill="#111827">2026-05-21</text>
</svg>